<svg id="svg" version="1.1" xmlns="http://www.w3.org/2000/svg" xmlns:xlink="http://www.w3.org/1999/xlink" width="400" height="400" viewBox="0, 0, 400,400"><g id="svgg"><path id="path0" d="M182.400 176.072 C 175.250 176.222,166.250 176.534,162.400 176.766 C 147.724 177.649,137.868 178.342,130.300 179.025 L 127.600 179.268 127.600 183.234 C 127.600 185.415,127.448 187.200,127.263 187.200 C 127.078 187.200,126.887 188.404,126.839 189.876 C 126.792 191.348,126.633 192.743,126.486 192.976 C 126.339 193.209,126.195 193.940,126.164 194.600 C 126.134 195.260,125.916 196.278,125.679 196.862 C 125.442 197.446,125.319 198.481,125.405 199.162 C 125.491 199.843,125.391 200.400,125.181 200.400 C 124.971 200.400,124.800 201.109,124.800 201.976 C 124.800 202.843,124.620 203.664,124.400 203.800 C 124.180 203.936,124.000 204.767,124.000 205.647 C 124.000 206.527,123.857 207.159,123.683 207.051 C 123.509 206.944,123.323 207.428,123.270 208.128 C 123.218 208.827,123.000 209.460,122.787 209.533 C 122.574 209.607,122.400 210.181,122.400 210.810 C 122.400 211.438,122.220 212.064,122.000 212.200 C 121.780 212.336,121.600 213.067,121.600 213.824 C 121.600 214.581,121.420 215.200,121.200 215.200 C 120.980 215.200,120.800 215.740,120.800 216.400 C 120.800 217.060,120.620 217.600,120.400 217.600 C 120.180 217.600,120.000 218.140,120.000 218.800 C 120.000 219.460,119.820 220.000,119.600 220.000 C 119.380 220.000,119.200 220.641,119.200 221.424 C 119.200 222.271,119.038 222.747,118.800 222.600 C 118.567 222.456,118.400 222.863,118.400 223.576 C 118.400 224.249,118.259 224.800,118.087 224.800 C 117.915 224.800,117.734 225.295,117.684 225.900 C 117.634 226.505,117.415 227.060,117.197 227.133 C 116.978 227.207,116.800 227.614,116.800 228.039 C 116.800 228.463,116.632 229.123,116.427 229.505 C 116.221 229.887,115.822 231.055,115.539 232.100 C 115.257 233.145,114.924 234.000,114.800 234.000 C 114.676 234.000,114.534 234.487,114.485 235.082 C 114.436 235.678,114.216 236.344,113.998 236.562 C 113.779 236.781,113.600 237.374,113.600 237.880 C 113.600 238.386,113.420 238.800,113.200 238.800 C 112.980 238.800,112.796 239.295,112.791 239.900 C 112.786 240.505,112.426 241.785,111.991 242.744 C 111.556 243.703,111.200 244.738,111.200 245.044 C 111.200 245.350,111.020 245.600,110.800 245.600 C 110.580 245.600,110.400 246.140,110.400 246.800 C 110.400 247.460,110.199 248.000,109.953 248.000 C 109.708 248.000,109.590 248.320,109.693 248.712 C 109.795 249.103,109.629 249.658,109.323 249.943 C 109.009 250.236,108.873 250.799,109.010 251.232 C 109.147 251.662,109.066 252.000,108.827 252.000 C 108.592 252.000,108.400 252.529,108.400 253.176 C 108.400 253.823,108.220 254.464,108.000 254.600 C 107.780 254.736,107.600 255.287,107.600 255.824 C 107.600 256.361,107.420 256.800,107.200 256.800 C 106.980 256.800,106.800 257.239,106.800 257.776 C 106.800 258.313,106.620 258.864,106.400 259.000 C 106.180 259.136,106.000 259.787,106.000 260.447 C 106.000 261.145,105.833 261.544,105.600 261.400 C 105.361 261.253,105.200 261.737,105.200 262.600 C 105.200 263.463,105.039 263.947,104.800 263.800 C 104.561 263.653,104.400 264.137,104.400 265.000 C 104.400 265.863,104.239 266.347,104.000 266.200 C 103.767 266.056,103.600 266.463,103.600 267.176 C 103.600 267.849,103.459 268.400,103.287 268.400 C 103.115 268.400,102.934 268.885,102.885 269.478 C 102.836 270.070,102.658 270.655,102.489 270.778 C 102.321 270.900,102.124 271.630,102.051 272.400 C 101.979 273.170,101.785 273.890,101.620 274.000 C 101.307 274.208,100.896 275.678,100.527 277.904 C 100.409 278.621,100.151 279.306,99.956 279.427 C 99.760 279.548,99.600 280.087,99.600 280.624 C 99.600 281.161,99.420 281.600,99.200 281.600 C 98.980 281.600,98.800 282.309,98.800 283.176 C 98.800 284.043,98.639 284.852,98.442 284.974 C 98.245 285.095,97.982 285.871,97.858 286.697 C 97.328 290.207,97.092 291.220,96.756 291.427 C 96.560 291.548,96.400 292.231,96.400 292.944 C 96.400 293.657,96.237 294.411,96.039 294.620 C 95.840 294.829,95.579 295.810,95.458 296.800 C 95.337 297.790,95.036 299.680,94.791 301.000 C 94.545 302.320,94.250 304.570,94.135 306.000 C 94.020 307.430,93.754 308.810,93.543 309.066 C 93.331 309.322,93.188 311.813,93.224 314.601 C 93.266 317.872,93.132 319.828,92.845 320.115 C 92.310 320.650,92.251 324.973,92.765 325.934 C 92.965 326.309,93.223 328.682,93.338 331.208 C 93.453 333.734,93.746 336.880,93.989 338.200 C 94.232 339.520,94.536 341.320,94.664 342.200 C 94.792 343.080,95.060 343.903,95.258 344.029 C 95.457 344.156,95.644 344.921,95.674 345.729 C 95.705 346.538,95.880 347.200,96.065 347.200 C 96.249 347.200,96.400 347.740,96.400 348.400 C 96.400 349.060,96.580 349.600,96.800 349.600 C 97.020 349.600,97.200 350.039,97.200 350.576 C 97.200 351.113,97.380 351.664,97.600 351.800 C 97.820 351.936,98.000 352.397,98.000 352.824 C 98.000 353.251,98.146 353.600,98.325 353.600 C 98.504 353.600,98.898 354.230,99.200 355.000 C 99.502 355.770,99.896 356.400,100.075 356.400 C 100.254 356.400,100.404 356.715,100.409 357.100 C 100.414 357.485,100.770 358.250,101.200 358.800 C 101.630 359.350,101.986 359.998,101.991 360.241 C 101.996 360.483,102.540 361.246,103.200 361.937 C 103.860 362.628,104.400 363.348,104.400 363.537 C 104.400 363.726,104.940 364.446,105.600 365.137 C 106.260 365.828,106.800 366.565,106.800 366.776 C 106.800 366.988,107.115 367.344,107.500 367.568 C 107.885 367.792,108.054 367.981,107.875 367.988 C 107.360 368.007,113.031 373.600,113.566 373.600 C 113.831 373.600,113.936 373.780,113.800 374.000 C 113.664 374.220,113.833 374.400,114.176 374.400 C 114.519 374.400,114.800 374.580,114.800 374.800 C 114.800 375.020,115.070 375.200,115.400 375.200 C 115.730 375.200,116.001 375.335,116.003 375.500 C 116.004 375.665,116.679 376.248,117.503 376.795 C 118.326 377.342,119.291 378.107,119.647 378.495 C 120.003 378.883,120.548 379.200,120.859 379.200 C 121.169 379.200,121.683 379.560,122.000 380.000 C 122.317 380.440,122.814 380.800,123.105 380.800 C 123.396 380.800,124.020 381.160,124.492 381.600 C 124.964 382.040,125.587 382.400,125.875 382.400 C 126.164 382.400,126.400 382.580,126.400 382.800 C 126.400 383.020,126.670 383.200,127.000 383.200 C 127.330 383.200,127.600 383.380,127.600 383.600 C 127.600 383.820,127.960 384.000,128.400 384.000 C 128.840 384.000,129.200 384.180,129.200 384.400 C 129.200 384.620,129.470 384.800,129.800 384.800 C 130.130 384.800,130.400 384.960,130.400 385.156 C 130.400 385.352,131.210 385.751,132.200 386.043 C 133.190 386.335,134.000 386.715,134.000 386.887 C 134.000 387.059,134.360 387.200,134.800 387.200 C 135.240 387.200,135.600 387.380,135.600 387.600 C 135.600 387.820,135.960 388.000,136.400 388.000 C 136.840 388.000,137.200 388.141,137.200 388.313 C 137.200 388.485,137.695 388.666,138.300 388.716 C 138.905 388.766,139.460 388.985,139.533 389.203 C 139.607 389.422,140.012 389.600,140.433 389.600 C 140.855 389.600,141.200 389.741,141.200 389.913 C 141.200 390.085,141.621 390.260,142.135 390.303 C 142.650 390.345,143.595 390.654,144.235 390.988 C 144.876 391.322,145.906 391.596,146.524 391.598 C 147.170 391.599,147.542 391.770,147.400 392.000 C 147.256 392.233,147.655 392.400,148.353 392.400 C 149.013 392.400,149.664 392.580,149.800 392.800 C 149.936 393.020,150.667 393.200,151.424 393.200 C 152.181 393.200,152.800 393.380,152.800 393.600 C 152.800 393.820,153.441 394.000,154.224 394.000 C 155.007 394.000,155.558 394.144,155.449 394.320 C 155.341 394.496,155.915 394.685,156.725 394.739 C 157.535 394.794,158.370 395.010,158.579 395.219 C 158.789 395.429,159.554 395.600,160.280 395.600 C 161.006 395.600,161.600 395.780,161.600 396.000 C 161.600 396.220,162.410 396.400,163.400 396.400 C 164.390 396.400,165.200 396.546,165.200 396.725 C 165.200 396.904,166.051 397.095,167.091 397.148 C 168.131 397.202,169.096 397.431,169.235 397.657 C 169.375 397.883,169.604 398.053,169.745 398.034 C 171.102 397.852,174.401 398.075,174.239 398.337 C 174.124 398.523,175.233 398.714,176.703 398.761 C 178.173 398.809,179.634 399.062,179.949 399.324 C 180.801 400.031,220.064 400.008,220.300 399.300 C 220.410 398.970,221.331 398.800,223.010 398.800 C 224.408 398.800,225.664 398.620,225.800 398.400 C 225.936 398.180,226.991 398.000,228.144 398.000 C 229.297 398.000,230.411 397.838,230.620 397.641 C 230.829 397.444,231.720 397.185,232.600 397.067 C 233.480 396.949,235.100 396.650,236.200 396.404 C 237.300 396.157,238.787 395.856,239.504 395.734 C 240.221 395.612,240.906 395.351,241.027 395.156 C 241.148 394.960,242.047 394.800,243.024 394.800 C 244.001 394.800,244.800 394.620,244.800 394.400 C 244.800 394.180,245.340 394.000,246.000 394.000 C 246.660 394.000,247.200 393.820,247.200 393.600 C 247.200 393.380,247.830 393.200,248.600 393.200 C 249.370 393.200,250.000 393.020,250.000 392.800 C 250.000 392.580,250.452 392.400,251.005 392.400 C 251.558 392.400,252.323 392.245,252.705 392.056 C 253.826 391.502,257.451 390.400,258.154 390.400 C 258.509 390.400,258.800 390.220,258.800 390.000 C 258.800 389.780,259.149 389.600,259.576 389.600 C 260.003 389.600,260.464 389.420,260.600 389.200 C 260.736 388.980,261.287 388.800,261.824 388.800 C 262.361 388.800,262.800 388.620,262.800 388.400 C 262.800 388.180,263.160 388.000,263.600 388.000 C 264.040 388.000,264.400 387.820,264.400 387.600 C 264.400 387.380,264.760 387.200,265.200 387.200 C 265.640 387.200,266.000 387.020,266.000 386.800 C 266.000 386.580,266.234 386.400,266.520 386.400 C 267.256 386.400,269.193 385.459,269.197 385.100 C 269.199 384.935,269.560 384.800,270.000 384.800 C 270.440 384.800,270.800 384.620,270.800 384.400 C 270.800 384.180,271.160 384.000,271.600 384.000 C 272.040 384.000,272.400 383.864,272.400 383.698 C 272.400 383.531,272.985 383.140,273.700 382.828 C 274.415 382.516,275.270 381.976,275.600 381.628 C 275.930 381.279,276.695 380.740,277.300 380.430 C 277.905 380.119,278.400 379.715,278.400 379.532 C 278.400 379.350,278.625 379.200,278.900 379.200 C 279.175 379.199,279.918 378.753,280.552 378.208 C 281.186 377.663,281.889 377.331,282.114 377.470 C 282.349 377.616,282.402 377.527,282.238 377.262 C 282.081 377.008,282.152 376.800,282.395 376.800 C 282.638 376.800,283.286 376.350,283.836 375.800 C 284.386 375.250,285.013 374.800,285.228 374.800 C 285.797 374.800,293.200 367.372,293.200 366.801 C 293.200 366.537,293.740 365.817,294.400 365.200 C 295.060 364.583,295.600 363.857,295.600 363.586 C 295.600 363.316,295.929 362.803,296.330 362.447 C 296.732 362.091,297.310 361.228,297.615 360.529 C 297.920 359.830,298.281 359.327,298.417 359.411 C 298.554 359.495,298.909 358.942,299.207 358.182 C 299.505 357.422,299.896 356.800,300.075 356.800 C 300.254 356.800,300.400 356.440,300.400 356.000 C 300.400 355.560,300.580 355.200,300.800 355.200 C 301.020 355.200,301.200 354.840,301.200 354.400 C 301.200 353.960,301.380 353.600,301.600 353.600 C 301.820 353.600,302.000 353.180,302.000 352.667 C 302.000 352.153,302.123 351.610,302.274 351.459 C 302.723 351.010,303.587 348.271,303.594 347.276 C 303.597 346.764,303.778 346.463,304.000 346.600 C 304.238 346.747,304.400 346.271,304.400 345.424 C 304.400 344.641,304.580 344.000,304.800 344.000 C 305.020 344.000,305.200 343.136,305.200 342.080 C 305.200 341.024,305.363 339.989,305.561 339.780 C 306.089 339.225,307.111 328.747,307.238 322.600 C 307.279 320.610,306.530 310.889,306.005 306.600 C 305.790 304.840,305.501 302.410,305.363 301.200 C 305.225 299.990,304.963 298.906,304.779 298.791 C 304.596 298.676,304.403 297.740,304.350 296.713 C 304.296 295.685,304.106 294.935,303.926 295.045 C 303.747 295.156,303.600 294.517,303.600 293.624 C 303.600 292.731,303.455 292.000,303.278 292.000 C 303.101 292.000,302.912 291.235,302.857 290.300 C 302.802 289.365,302.587 288.429,302.379 288.220 C 302.170 288.011,302.000 287.145,302.000 286.296 C 302.000 285.369,301.840 284.852,301.600 285.000 C 301.359 285.149,301.200 284.612,301.200 283.647 C 301.200 282.767,301.020 281.936,300.800 281.800 C 300.580 281.664,300.400 281.023,300.400 280.376 C 300.400 279.729,300.220 279.200,300.000 279.200 C 299.780 279.200,299.600 278.671,299.600 278.024 C 299.600 277.377,299.420 276.736,299.200 276.600 C 298.980 276.464,298.800 275.823,298.800 275.176 C 298.800 274.529,298.620 274.000,298.400 274.000 C 298.180 274.000,298.000 273.381,298.000 272.624 C 298.000 271.867,297.820 271.136,297.600 271.000 C 297.380 270.864,297.200 270.213,297.200 269.553 C 297.200 268.855,297.033 268.456,296.800 268.600 C 296.567 268.744,296.400 268.345,296.400 267.647 C 296.400 266.987,296.220 266.336,296.000 266.200 C 295.780 266.064,295.600 265.413,295.600 264.753 C 295.600 264.055,295.433 263.656,295.200 263.800 C 294.961 263.947,294.800 263.463,294.800 262.600 C 294.800 261.737,294.639 261.253,294.400 261.400 C 294.167 261.544,294.000 261.137,294.000 260.424 C 294.000 259.751,293.820 259.200,293.600 259.200 C 293.380 259.200,293.200 258.660,293.200 258.000 C 293.200 257.340,293.020 256.800,292.800 256.800 C 292.580 256.800,292.400 256.361,292.400 255.824 C 292.400 255.287,292.236 254.746,292.035 254.622 C 291.834 254.497,291.530 253.632,291.358 252.698 C 291.187 251.764,291.021 250.910,290.989 250.800 C 290.802 250.157,290.291 248.905,289.971 248.305 C 289.767 247.923,289.600 247.259,289.600 246.829 C 289.600 246.399,289.420 245.936,289.200 245.800 C 288.980 245.664,288.800 245.124,288.800 244.600 C 288.800 244.076,288.620 243.536,288.400 243.400 C 288.180 243.264,288.000 242.728,288.000 242.210 C 288.000 241.691,287.822 241.207,287.603 241.133 C 287.385 241.060,287.166 240.505,287.116 239.900 C 287.066 239.295,286.885 238.800,286.713 238.800 C 286.541 238.800,286.400 238.260,286.400 237.600 C 286.400 236.940,286.220 236.400,286.000 236.400 C 285.780 236.400,285.600 235.961,285.600 235.424 C 285.600 234.887,285.420 234.336,285.200 234.200 C 284.980 234.064,284.800 233.601,284.800 233.171 C 284.800 232.741,284.641 232.077,284.447 231.695 C 283.814 230.451,283.262 229.031,282.777 227.400 C 282.516 226.520,282.144 225.487,281.951 225.105 C 281.758 224.723,281.600 223.958,281.600 223.405 C 281.600 222.852,281.420 222.400,281.200 222.400 C 280.980 222.400,280.800 221.849,280.800 221.176 C 280.800 220.463,280.633 220.056,280.400 220.200 C 280.162 220.347,280.000 219.871,280.000 219.024 C 280.000 218.241,279.820 217.600,279.600 217.600 C 279.380 217.600,279.200 217.161,279.200 216.624 C 279.200 216.087,279.020 215.536,278.800 215.400 C 278.580 215.264,278.400 214.544,278.400 213.800 C 278.400 213.056,278.220 212.336,278.000 212.200 C 277.780 212.064,277.600 211.524,277.600 211.000 C 277.600 210.476,277.420 209.936,277.200 209.800 C 276.980 209.664,276.800 208.933,276.800 208.176 C 276.800 207.419,276.620 206.800,276.400 206.800 C 276.180 206.800,276.000 206.080,276.000 205.200 C 276.000 204.320,275.832 203.600,275.627 203.600 C 275.423 203.600,275.129 202.156,274.975 200.391 C 274.821 198.626,274.539 197.086,274.348 196.968 C 274.156 196.849,274.000 196.122,274.000 195.350 C 274.000 194.579,273.831 193.631,273.624 193.244 C 273.416 192.857,273.207 191.421,273.157 190.053 C 273.108 188.685,272.917 187.472,272.734 187.359 C 272.550 187.246,272.400 185.379,272.400 183.211 L 272.400 179.268 269.700 179.025 C 261.072 178.247,248.628 177.394,237.800 176.838 C 234.060 176.646,230.550 176.388,230.000 176.264 C 228.395 175.904,196.579 175.775,182.400 176.072 " stroke="none" fill="#dbdbdb" fill-rule="evenodd"></path><path id="path1" d="M191.800 0.440 C 190.920 0.669,188.490 1.281,186.400 1.800 C 158.987 8.604,135.404 35.419,123.079 73.800 C 121.502 78.710,119.239 86.951,118.794 89.400 C 118.634 90.280,118.209 92.440,117.850 94.200 C 116.730 99.684,116.279 102.601,115.223 111.200 C 111.405 142.279,115.736 168.266,126.175 176.926 C 127.307 177.865,127.903 178.635,127.723 178.926 C 127.562 179.187,127.874 179.110,128.415 178.757 C 129.076 178.325,130.781 178.029,133.600 177.858 C 135.910 177.717,140.500 177.418,143.800 177.194 C 170.345 175.391,180.360 175.000,200.000 175.000 C 219.509 175.000,231.118 175.454,256.400 177.206 C 260.030 177.458,264.837 177.785,267.081 177.932 C 269.470 178.089,271.369 178.407,271.661 178.700 C 271.942 178.981,273.141 179.200,274.400 179.200 C 275.632 179.200,276.811 179.366,277.020 179.569 C 277.229 179.772,279.560 180.046,282.200 180.179 C 284.840 180.312,289.520 180.593,292.600 180.804 C 295.680 181.014,301.260 181.389,305.000 181.636 C 317.269 182.448,348.414 182.123,349.380 181.173 C 349.589 180.968,350.793 180.800,352.056 180.800 C 353.319 180.800,354.464 180.620,354.600 180.400 C 354.736 180.180,355.546 180.000,356.400 180.000 C 357.254 180.000,358.064 179.820,358.200 179.600 C 358.336 179.380,359.056 179.200,359.800 179.200 C 360.544 179.200,361.264 179.020,361.400 178.800 C 361.536 178.580,362.267 178.400,363.024 178.400 C 363.781 178.400,364.400 178.220,364.400 178.000 C 364.400 177.780,364.762 177.600,365.205 177.600 C 365.648 177.600,366.368 177.420,366.805 177.200 C 367.242 176.980,367.958 176.620,368.395 176.400 C 368.832 176.180,369.562 176.000,370.018 176.000 C 370.474 176.000,370.736 175.820,370.600 175.600 C 370.464 175.380,370.713 175.200,371.153 175.200 C 371.593 175.200,372.072 175.008,372.217 174.773 C 372.362 174.538,372.740 174.445,373.056 174.566 C 373.372 174.687,373.732 174.521,373.857 174.196 C 373.982 173.871,374.245 173.704,374.442 173.826 C 374.639 173.948,374.800 173.895,374.800 173.710 C 374.800 173.524,375.385 173.029,376.100 172.609 C 376.815 172.189,377.619 171.655,377.886 171.422 C 379.265 170.224,379.606 170.000,380.050 170.000 C 380.316 170.000,380.414 169.881,380.269 169.736 C 379.975 169.442,381.626 168.150,382.100 168.303 C 382.265 168.356,382.401 168.175,382.402 167.900 C 382.403 167.625,383.183 166.540,384.136 165.489 C 385.089 164.438,386.275 162.818,386.772 161.889 C 387.269 160.960,388.198 159.218,388.838 158.017 C 389.477 156.817,390.000 155.600,390.000 155.312 C 390.000 155.024,390.158 154.477,390.351 154.095 C 390.980 152.849,391.600 150.566,391.600 149.495 C 391.600 148.919,391.780 148.336,392.000 148.200 C 392.220 148.064,392.400 146.984,392.400 145.800 C 392.400 144.616,392.580 143.536,392.800 143.400 C 393.050 143.245,393.200 139.204,393.200 132.600 C 393.200 125.996,393.050 121.955,392.800 121.800 C 392.580 121.664,392.400 120.393,392.400 118.976 C 392.400 117.525,392.225 116.400,392.000 116.400 C 391.780 116.400,391.600 115.683,391.600 114.806 C 391.600 113.186,391.103 110.690,390.205 107.800 C 388.172 101.256,386.973 97.781,386.709 97.667 C 386.539 97.593,386.400 97.284,386.400 96.979 C 386.400 96.483,385.980 95.469,383.678 90.400 C 383.328 89.630,382.942 88.910,382.821 88.800 C 382.349 88.373,381.600 86.781,381.600 86.205 C 381.600 85.872,381.420 85.600,381.200 85.600 C 380.980 85.600,380.800 85.330,380.800 85.000 C 380.800 84.670,380.620 84.400,380.400 84.400 C 380.180 84.400,380.000 84.130,380.000 83.800 C 380.000 83.470,379.820 83.200,379.600 83.200 C 379.380 83.200,379.200 82.840,379.200 82.400 C 379.200 81.960,379.064 81.600,378.898 81.600 C 378.731 81.600,378.371 81.094,378.097 80.475 C 377.824 79.856,377.240 78.964,376.800 78.492 C 376.360 78.020,376.000 77.446,376.000 77.217 C 376.000 76.988,375.840 76.800,375.643 76.800 C 375.447 76.800,375.179 76.395,375.046 75.900 C 374.914 75.405,374.184 74.293,373.424 73.428 C 372.663 72.564,372.150 71.681,372.282 71.467 C 372.416 71.250,372.318 71.204,372.062 71.362 C 371.808 71.519,371.600 71.470,371.600 71.254 C 371.600 71.038,371.155 70.333,370.611 69.686 C 370.067 69.040,369.752 68.367,369.911 68.191 C 370.070 68.016,369.975 68.001,369.700 68.159 C 369.425 68.318,369.200 68.302,369.200 68.124 C 369.199 67.946,368.734 67.260,368.166 66.600 C 365.230 63.189,364.800 62.645,364.800 62.336 C 364.800 62.151,364.530 62.000,364.200 62.000 C 363.870 62.000,363.600 61.827,363.600 61.615 C 363.600 61.403,361.665 59.307,359.300 56.957 C 356.935 54.608,355.045 52.531,355.100 52.343 C 355.155 52.154,355.065 52.044,354.900 52.097 C 354.426 52.250,352.775 50.958,353.069 50.664 C 353.214 50.519,353.055 50.400,352.716 50.400 C 352.376 50.400,351.851 50.100,351.549 49.733 C 351.247 49.366,349.701 48.040,348.113 46.786 C 346.526 45.533,345.356 44.364,345.513 44.189 C 345.671 44.015,345.596 43.988,345.348 44.130 C 345.099 44.272,344.289 43.854,343.548 43.201 C 342.806 42.547,342.020 42.010,341.800 42.006 C 341.180 41.995,339.182 40.152,339.474 39.860 C 339.617 39.717,339.333 39.600,338.843 39.600 C 338.353 39.600,338.040 39.458,338.148 39.285 C 338.255 39.112,337.770 38.717,337.071 38.407 C 336.372 38.098,335.451 37.520,335.025 37.122 C 334.598 36.725,334.095 36.400,333.907 36.400 C 333.719 36.400,333.078 35.944,332.483 35.387 C 331.887 34.830,330.410 33.891,329.200 33.301 C 327.990 32.712,326.940 32.088,326.867 31.915 C 326.793 31.742,326.556 31.600,326.339 31.600 C 326.122 31.600,325.159 31.060,324.200 30.400 C 323.241 29.740,322.253 29.200,322.004 29.200 C 321.756 29.200,321.681 28.992,321.838 28.738 C 322.019 28.446,321.948 28.385,321.644 28.573 C 321.381 28.736,320.948 28.695,320.682 28.482 C 319.773 27.752,315.488 25.600,314.944 25.600 C 314.645 25.600,314.400 25.420,314.400 25.200 C 314.400 24.980,314.040 24.800,313.600 24.800 C 313.160 24.800,312.800 24.620,312.800 24.400 C 312.800 24.180,312.440 24.000,312.000 24.000 C 311.560 24.000,311.200 23.820,311.200 23.600 C 311.200 23.380,310.840 23.200,310.400 23.200 C 309.960 23.200,309.600 23.020,309.600 22.800 C 309.600 22.580,309.240 22.400,308.800 22.400 C 308.360 22.400,308.000 22.220,308.000 22.000 C 308.000 21.780,307.685 21.594,307.300 21.587 C 306.915 21.580,306.258 21.316,305.841 21.000 C 305.424 20.684,304.929 20.520,304.741 20.636 C 304.553 20.752,304.400 20.676,304.400 20.468 C 304.400 20.259,303.590 19.849,302.600 19.557 C 301.610 19.265,300.800 18.885,300.800 18.713 C 300.800 18.541,300.350 18.400,299.800 18.400 C 299.250 18.400,298.800 18.220,298.800 18.000 C 298.800 17.780,298.451 17.600,298.024 17.600 C 297.597 17.600,297.136 17.420,297.000 17.200 C 296.864 16.980,296.313 16.800,295.776 16.800 C 295.239 16.800,294.800 16.620,294.800 16.400 C 294.800 16.180,294.451 16.000,294.024 16.000 C 293.597 16.000,293.136 15.820,293.000 15.600 C 292.864 15.380,292.401 15.200,291.971 15.200 C 291.541 15.200,290.877 15.041,290.495 14.847 C 288.912 14.041,287.753 13.575,286.978 13.430 C 286.526 13.345,285.469 12.989,284.629 12.638 C 283.789 12.287,282.754 12.000,282.328 12.000 C 281.901 12.000,281.641 11.857,281.749 11.683 C 281.856 11.509,281.558 11.337,281.085 11.301 C 279.828 11.207,276.800 10.267,276.800 9.972 C 276.800 9.833,276.305 9.741,275.700 9.768 C 275.095 9.795,274.414 9.689,274.188 9.532 C 273.961 9.376,273.331 9.153,272.788 9.037 C 272.244 8.921,271.125 8.659,270.300 8.455 C 269.475 8.251,268.800 8.191,268.800 8.322 C 268.800 8.453,268.584 8.344,268.320 8.080 C 268.056 7.816,267.347 7.600,266.744 7.600 C 266.141 7.600,265.536 7.420,265.400 7.200 C 265.264 6.980,264.454 6.800,263.600 6.800 C 262.746 6.800,261.936 6.620,261.800 6.400 C 261.664 6.180,260.948 6.000,260.210 6.000 C 259.471 6.000,258.807 5.830,258.733 5.621 C 258.660 5.413,257.745 5.200,256.700 5.147 C 255.655 5.094,254.800 4.904,254.800 4.725 C 254.800 4.546,253.900 4.400,252.800 4.400 C 251.700 4.400,250.800 4.220,250.800 4.000 C 250.800 3.780,249.810 3.600,248.600 3.600 C 247.390 3.600,246.400 3.420,246.400 3.200 C 246.400 2.979,245.360 2.800,244.080 2.800 C 242.804 2.800,241.589 2.630,241.380 2.423 C 241.171 2.216,239.875 2.006,238.500 1.957 C 237.125 1.909,236.000 1.718,236.000 1.534 C 236.000 1.350,234.506 1.200,232.680 1.200 C 230.761 1.200,229.171 1.011,228.912 0.752 C 228.299 0.139,194.059 -0.148,191.800 0.440 " stroke="none" fill="#ab7333" fill-rule="evenodd"></path><path id="path2" d="M174.500 0.313 C 171.946 0.377,170.000 0.594,170.000 0.813 C 170.000 1.028,168.674 1.200,167.024 1.200 C 165.387 1.200,163.936 1.380,163.800 1.600 C 163.664 1.820,162.393 2.000,160.976 2.000 C 159.525 2.000,158.400 2.175,158.400 2.400 C 158.400 2.625,157.275 2.800,155.824 2.800 C 154.407 2.800,153.136 2.980,153.000 3.200 C 152.864 3.420,151.863 3.600,150.776 3.600 C 149.689 3.600,148.800 3.780,148.800 4.000 C 148.800 4.220,147.900 4.400,146.800 4.400 C 145.700 4.400,144.800 4.580,144.800 4.800 C 144.800 5.020,143.990 5.200,143.000 5.200 C 142.010 5.200,141.200 5.380,141.200 5.600 C 141.200 5.820,140.480 6.000,139.600 6.000 C 138.720 6.000,138.000 6.180,138.000 6.400 C 138.000 6.620,137.201 6.800,136.224 6.800 C 135.247 6.800,134.336 6.980,134.200 7.200 C 134.064 7.420,133.344 7.600,132.600 7.600 C 131.856 7.600,131.136 7.780,131.000 8.000 C 130.864 8.220,130.223 8.400,129.576 8.400 C 128.929 8.400,128.400 8.583,128.400 8.808 C 128.400 9.032,127.990 9.112,127.487 8.986 C 126.985 8.860,126.063 9.022,125.437 9.347 C 124.812 9.671,124.053 9.842,123.750 9.726 C 123.448 9.609,123.200 9.714,123.200 9.957 C 123.200 10.201,122.738 10.400,122.174 10.400 C 121.609 10.400,120.809 10.581,120.395 10.803 C 119.981 11.024,119.183 11.243,118.621 11.290 C 118.060 11.336,117.600 11.515,117.600 11.687 C 117.600 11.859,117.161 12.000,116.624 12.000 C 116.087 12.000,115.536 12.180,115.400 12.400 C 115.264 12.620,114.724 12.800,114.200 12.800 C 113.676 12.800,113.136 12.980,113.000 13.200 C 112.864 13.420,112.313 13.600,111.776 13.600 C 111.239 13.600,110.800 13.780,110.800 14.000 C 110.800 14.220,110.429 14.400,109.976 14.400 C 109.523 14.400,109.264 14.580,109.400 14.800 C 109.547 15.038,109.071 15.200,108.224 15.200 C 107.441 15.200,106.800 15.380,106.800 15.600 C 106.800 15.820,106.361 16.000,105.824 16.000 C 105.287 16.000,104.736 16.180,104.600 16.400 C 104.464 16.620,104.003 16.800,103.576 16.800 C 103.149 16.800,102.800 16.980,102.800 17.200 C 102.800 17.420,102.260 17.600,101.600 17.600 C 100.940 17.600,100.400 17.780,100.400 18.000 C 100.400 18.220,100.040 18.400,99.600 18.400 C 99.160 18.400,98.800 18.580,98.800 18.800 C 98.800 19.020,98.440 19.200,98.000 19.200 C 97.560 19.200,97.200 19.380,97.200 19.600 C 97.200 19.820,96.649 20.000,95.976 20.000 C 95.263 20.000,94.856 20.167,95.000 20.400 C 95.140 20.627,94.804 20.800,94.224 20.800 C 93.661 20.800,93.200 20.980,93.200 21.200 C 93.200 21.420,92.930 21.600,92.600 21.600 C 92.270 21.600,92.000 21.780,92.000 22.000 C 92.000 22.220,91.640 22.400,91.200 22.400 C 90.760 22.400,90.400 22.580,90.400 22.800 C 90.400 23.020,90.040 23.200,89.600 23.200 C 89.160 23.200,88.800 23.380,88.800 23.600 C 88.800 23.820,88.440 24.000,88.000 24.000 C 87.560 24.000,87.200 24.180,87.200 24.400 C 87.200 24.620,86.921 24.800,86.580 24.800 C 86.239 24.800,85.384 25.107,84.680 25.481 C 83.976 25.856,83.195 26.123,82.946 26.074 C 82.696 26.026,82.379 26.278,82.242 26.634 C 82.099 27.006,81.739 27.185,81.397 27.054 C 81.068 26.928,80.800 26.999,80.800 27.213 C 80.800 27.426,80.440 27.600,80.000 27.600 C 79.560 27.600,79.200 27.780,79.200 28.000 C 79.200 28.220,78.930 28.400,78.600 28.400 C 78.270 28.400,78.000 28.580,78.000 28.800 C 78.000 29.020,77.764 29.200,77.475 29.200 C 77.187 29.200,76.564 29.560,76.092 30.000 C 75.620 30.440,74.956 30.800,74.617 30.800 C 74.278 30.800,74.000 30.980,74.000 31.200 C 74.000 31.420,73.764 31.600,73.475 31.600 C 73.187 31.600,72.564 31.960,72.092 32.400 C 71.620 32.840,70.956 33.200,70.617 33.200 C 70.278 33.200,70.000 33.380,70.000 33.600 C 70.000 33.820,69.680 34.000,69.288 34.000 C 68.897 34.000,68.317 34.360,68.000 34.800 C 67.683 35.240,67.143 35.600,66.800 35.600 C 66.457 35.600,65.917 35.960,65.600 36.400 C 65.283 36.840,64.743 37.200,64.400 37.200 C 64.057 37.200,63.517 37.560,63.200 38.000 C 62.883 38.440,62.420 38.800,62.171 38.800 C 61.922 38.800,61.154 39.340,60.463 40.000 C 59.772 40.660,59.065 41.200,58.892 41.200 C 58.719 41.200,58.324 41.550,58.015 41.979 C 57.707 42.407,57.307 42.666,57.127 42.555 C 56.947 42.444,56.800 42.531,56.800 42.749 C 56.800 42.968,56.431 43.263,55.980 43.406 C 55.529 43.549,54.545 44.282,53.793 45.033 C 53.042 45.785,52.265 46.400,52.067 46.400 C 51.869 46.400,50.677 47.390,49.418 48.600 C 48.158 49.810,46.982 50.800,46.804 50.800 C 46.361 50.800,43.600 53.592,43.600 54.040 C 43.600 54.238,43.330 54.400,43.000 54.400 C 42.670 54.400,42.400 54.568,42.400 54.773 C 42.400 55.338,38.529 59.195,38.246 58.913 C 38.111 58.777,38.000 58.967,38.000 59.333 C 38.000 59.700,37.865 60.005,37.700 60.011 C 37.184 60.029,34.000 63.114,34.000 63.595 C 34.000 63.846,33.100 64.929,32.000 66.000 C 30.900 67.071,30.000 68.141,30.000 68.378 C 30.000 68.614,29.460 69.372,28.800 70.063 C 28.140 70.754,27.600 71.531,27.600 71.790 C 27.600 72.049,27.148 72.685,26.596 73.204 C 25.921 73.838,25.741 74.240,26.049 74.430 C 26.341 74.611,26.198 74.810,25.653 74.983 C 25.184 75.132,24.800 75.512,24.800 75.827 C 24.800 76.142,24.620 76.400,24.400 76.400 C 24.180 76.400,24.000 76.588,24.000 76.817 C 24.000 77.046,23.640 77.620,23.200 78.092 C 22.760 78.564,22.400 79.187,22.400 79.475 C 22.400 79.764,22.220 80.000,22.000 80.000 C 21.780 80.000,21.600 80.270,21.600 80.600 C 21.600 80.930,21.454 81.200,21.275 81.200 C 21.096 81.200,20.702 81.830,20.400 82.600 C 20.098 83.370,19.704 84.000,19.525 84.000 C 19.346 84.000,19.200 84.320,19.200 84.712 C 19.200 85.103,18.840 85.683,18.400 86.000 C 17.960 86.317,17.600 86.987,17.600 87.488 C 17.600 87.990,17.420 88.400,17.200 88.400 C 16.980 88.400,16.800 88.850,16.800 89.400 C 16.800 89.950,16.620 90.400,16.400 90.400 C 16.180 90.400,16.000 90.760,16.000 91.200 C 16.000 91.640,15.854 92.000,15.675 92.000 C 15.496 92.000,15.102 92.630,14.800 93.400 C 14.498 94.170,14.104 94.800,13.925 94.800 C 13.746 94.800,13.600 95.340,13.600 96.000 C 13.600 96.660,13.420 97.200,13.200 97.200 C 12.980 97.200,12.800 97.549,12.800 97.976 C 12.800 98.403,12.620 98.864,12.400 99.000 C 12.180 99.136,12.000 99.687,12.000 100.224 C 12.000 100.761,11.820 101.200,11.600 101.200 C 11.380 101.200,11.200 101.740,11.200 102.400 C 11.200 103.060,11.020 103.600,10.800 103.600 C 10.580 103.600,10.400 104.140,10.400 104.800 C 10.400 105.460,10.238 106.000,10.040 106.000 C 9.842 106.000,9.680 106.635,9.680 107.411 C 9.680 108.187,9.488 109.053,9.253 109.336 C 9.018 109.619,8.914 110.334,9.021 110.925 C 9.128 111.516,9.032 112.000,8.808 112.000 C 8.584 112.000,8.400 112.900,8.400 114.000 C 8.400 115.100,8.220 116.000,8.000 116.000 C 7.778 116.000,7.600 117.067,7.600 118.400 C 7.600 119.733,7.422 120.800,7.200 120.800 C 6.943 120.800,6.800 124.933,6.800 132.400 C 6.800 139.867,6.943 144.000,7.200 144.000 C 7.422 144.000,7.600 145.067,7.600 146.400 C 7.600 147.733,7.778 148.800,8.000 148.800 C 8.220 148.800,8.400 149.490,8.400 150.333 C 8.400 151.177,8.525 151.992,8.678 152.145 C 8.831 152.298,8.997 152.702,9.047 153.043 C 9.097 153.384,9.270 153.963,9.431 154.331 C 9.591 154.699,9.750 155.180,9.784 155.400 C 9.844 155.786,9.968 156.118,10.944 158.500 C 11.192 159.105,11.531 159.600,11.698 159.600 C 11.864 159.600,12.000 159.920,12.000 160.312 C 12.000 160.703,12.360 161.283,12.800 161.600 C 13.240 161.917,13.600 162.497,13.600 162.888 C 13.600 163.280,13.881 163.600,14.224 163.600 C 14.567 163.600,14.756 163.747,14.645 163.927 C 14.534 164.107,14.793 164.507,15.221 164.815 C 15.650 165.124,16.000 165.578,16.000 165.825 C 16.000 166.442,19.408 170.000,20.000 170.000 C 20.263 170.000,20.983 170.540,21.600 171.200 C 22.217 171.860,22.943 172.400,23.214 172.400 C 23.484 172.400,23.997 172.724,24.353 173.120 C 25.101 173.953,27.624 175.200,28.560 175.200 C 28.912 175.200,29.200 175.380,29.200 175.600 C 29.200 175.820,29.560 176.000,30.000 176.000 C 30.440 176.000,30.800 176.180,30.800 176.400 C 30.800 176.620,31.340 176.800,32.000 176.800 C 32.660 176.800,33.200 176.980,33.200 177.200 C 33.200 177.420,33.740 177.600,34.400 177.600 C 35.060 177.600,35.600 177.780,35.600 178.000 C 35.600 178.220,36.140 178.400,36.800 178.400 C 37.460 178.400,38.000 178.580,38.000 178.800 C 38.000 179.020,38.720 179.200,39.600 179.200 C 40.480 179.200,41.200 179.380,41.200 179.600 C 41.200 179.820,42.010 180.000,43.000 180.000 C 43.990 180.000,44.800 180.180,44.800 180.400 C 44.800 180.622,45.867 180.800,47.200 180.800 C 48.533 180.800,49.600 180.978,49.600 181.200 C 49.600 181.440,51.200 181.600,53.600 181.600 C 55.892 181.600,57.600 181.764,57.600 181.984 C 57.600 182.224,63.647 182.377,73.600 182.391 C 84.181 182.405,89.600 182.275,89.600 182.006 C 89.600 181.747,92.055 181.600,96.376 181.600 C 100.463 181.600,103.251 181.441,103.400 181.200 C 103.543 180.968,105.737 180.800,108.624 180.800 C 111.675 180.800,113.600 180.645,113.600 180.400 C 113.600 180.160,115.192 180.000,117.576 180.000 C 119.796 180.000,121.662 179.823,121.800 179.600 C 121.936 179.380,122.262 179.203,122.524 179.206 C 122.810 179.210,122.761 179.367,122.400 179.600 C 121.945 179.894,122.114 179.989,123.100 179.994 C 123.815 179.997,124.400 179.820,124.400 179.600 C 124.400 179.380,125.109 179.200,125.976 179.200 C 128.226 179.200,128.272 178.666,126.175 176.926 C 119.412 171.316,115.693 161.006,114.397 144.278 C 113.265 129.662,114.619 110.026,117.850 94.200 C 118.209 92.440,118.634 90.280,118.794 89.400 C 119.239 86.951,121.502 78.710,123.079 73.800 C 135.404 35.419,158.987 8.604,186.400 1.800 C 188.490 1.281,190.920 0.677,191.800 0.457 C 193.388 0.060,186.772 0.005,174.500 0.313 M320.600 28.400 C 321.260 28.837,321.980 29.195,322.200 29.196 C 322.420 29.196,322.011 28.838,321.290 28.399 C 319.592 27.363,319.036 27.364,320.600 28.400 M354.974 52.698 C 355.840 53.626,356.626 54.307,356.722 54.212 C 356.904 54.030,356.531 53.646,354.582 52.005 C 353.803 51.350,353.937 51.587,354.974 52.698 M369.037 67.800 C 369.397 68.350,369.757 68.800,369.837 68.800 C 369.917 68.800,369.778 68.350,369.527 67.800 C 369.277 67.250,368.916 66.800,368.727 66.800 C 368.537 66.800,368.676 67.250,369.037 67.800 M391.049 151.815 C 390.912 152.173,390.815 152.766,390.834 153.133 C 390.853 153.500,391.027 153.269,391.221 152.620 C 391.598 151.358,391.465 150.733,391.049 151.815 M382.893 166.800 C 382.618 167.240,382.498 167.600,382.625 167.600 C 382.925 167.600,384.000 166.527,384.000 166.229 C 384.000 165.720,383.362 166.049,382.893 166.800 M380.917 168.764 C 380.431 169.169,380.143 169.610,380.276 169.743 C 380.410 169.876,380.852 169.601,381.259 169.132 C 382.421 167.793,382.272 167.633,380.917 168.764 M297.200 181.200 C 297.200 181.420,297.605 181.597,298.100 181.594 C 298.828 181.589,298.885 181.514,298.400 181.200 C 297.624 180.699,297.200 180.699,297.200 181.200 " stroke="none" fill="#8c541c" fill-rule="evenodd"></path><path id="path3" d="M179.200 175.175 C 177.330 175.299,186.690 175.400,200.000 175.400 C 213.310 175.400,222.490 175.285,220.400 175.145 C 215.798 174.836,183.962 174.859,179.200 175.175 M162.000 176.004 C 160.790 176.154,163.220 176.190,167.400 176.083 C 171.580 175.977,175.075 175.824,175.167 175.745 C 175.453 175.496,164.317 175.716,162.000 176.004 M224.833 175.744 C 224.925 175.824,228.420 175.977,232.600 176.084 C 236.780 176.192,239.120 176.147,237.800 175.983 C 235.354 175.681,224.530 175.482,224.833 175.744 M149.600 176.811 C 148.610 176.971,150.410 177.010,153.600 176.897 C 156.790 176.784,159.475 176.626,159.567 176.546 C 159.863 176.287,151.459 176.511,149.600 176.811 M240.433 176.545 C 240.525 176.624,243.210 176.783,246.400 176.896 C 249.883 177.021,251.401 176.977,250.200 176.787 C 248.205 176.471,240.117 176.270,240.433 176.545 M137.800 177.617 C 136.920 177.785,138.360 177.826,141.000 177.709 C 143.640 177.593,145.875 177.430,145.967 177.349 C 146.267 177.081,139.440 177.306,137.800 177.617 M254.033 177.349 C 254.125 177.430,256.360 177.596,259.000 177.716 C 262.148 177.860,263.180 177.819,262.000 177.597 C 260.223 177.264,253.710 177.060,254.033 177.349 M129.033 178.346 C 128.916 178.536,130.120 178.612,131.710 178.514 C 135.720 178.267,135.972 178.069,132.324 178.032 C 130.632 178.014,129.151 178.156,129.033 178.346 M267.843 178.399 C 269.627 178.555,271.337 178.813,271.643 178.971 C 271.950 179.130,271.851 178.976,271.424 178.630 C 270.853 178.167,269.846 178.015,267.624 178.057 L 264.600 178.115 267.843 178.399 " stroke="none" fill="#bca486" fill-rule="evenodd"></path><path id="path4" d="M180.000 175.581 C 177.250 175.701,186.250 175.805,200.000 175.811 C 213.750 175.817,222.480 175.704,219.400 175.560 C 212.823 175.252,187.202 175.266,180.000 175.581 M162.400 176.400 C 159.481 176.649,159.519 176.657,163.800 176.700 C 166.220 176.724,168.560 176.589,169.000 176.400 C 169.935 175.998,167.110 175.998,162.400 176.400 M231.000 176.400 C 231.440 176.589,233.780 176.727,236.200 176.707 C 240.578 176.671,240.585 176.669,237.600 176.388 C 233.194 175.972,230.018 175.978,231.000 176.400 M149.200 177.200 L 145.800 177.451 150.000 177.486 C 152.310 177.505,154.650 177.376,155.200 177.200 C 156.409 176.813,154.447 176.813,149.200 177.200 M244.800 177.185 C 245.758 177.506,254.310 177.756,253.967 177.453 C 253.875 177.372,251.550 177.203,248.800 177.077 C 245.911 176.946,244.222 176.991,244.800 177.185 M137.800 178.000 L 135.000 178.259 138.600 178.301 C 140.580 178.325,142.560 178.189,143.000 178.000 C 143.947 177.593,142.204 177.593,137.800 178.000 M257.000 177.987 C 257.747 178.320,265.132 178.574,264.767 178.254 C 264.675 178.173,262.710 178.000,260.400 177.869 C 257.812 177.721,256.507 177.767,257.000 177.987 M129.200 178.800 C 128.402 179.056,128.604 179.127,130.200 179.154 C 131.300 179.173,132.470 179.013,132.800 178.800 C 133.548 178.317,130.709 178.317,129.200 178.800 M267.200 178.800 C 267.530 179.013,268.700 179.173,269.800 179.154 C 271.396 179.127,271.598 179.056,270.800 178.800 C 269.291 178.317,266.452 178.317,267.200 178.800 " stroke="none" fill="#c4ac99" fill-rule="evenodd"></path></g></svg>